# xmcd
#
# Track frame offsets:
#	150
#	18681
#	36230
#	54411
#	73423
#	91760
#	109674
#	123941
#	139332
#	151219
#	169236
#	186458
#	199254
#
# Disc length: 2874 seconds
#
# Revision: 1
# Processed by: cddbd v1.5.1PL0 Copyright (c) Steve Scherf et al.
# Submitted via: audiograbber 1.83.01
#
DISCID=bd0b380d
DTITLE=Mark Merritt - Reasons
DYEAR=1998
DGENRE=Country
TTITLE0=Reasons
TTITLE1=The Day They Met
TTITLE2=Purpose In This Life
TTITLE3=I Never Was Much For Sailing
TTITLE4=The Legend
TTITLE5=If I Only Had A Nickel
TTITLE6=The Two Of Us
TTITLE7=Ladies
TTITLE8=There´s A Way
TTITLE9=What I Did Last Night
TTITLE10=Cryin´ In My Dreams
TTITLE11=Things´ll Never Be The Same
TTITLE12=Take Me Far Away
EXTD=
EXTT0=
EXTT1=
EXTT2=
EXTT3=
EXTT4=
EXTT5=
EXTT6=
EXTT7=
EXTT8=
EXTT9=
EXTT10=
EXTT11=
EXTT12=
PLAYORDER=
